<?xml version="1.0" standalone="no"?>
<!DOCTYPE svg PUBLIC "-//W3C//DTD SVG 1.1//EN" "http://www.w3.org/Graphics/SVG/1.1/DTD/svg11.dtd" >
<svg xmlns="http://www.w3.org/2000/svg">
<metadata></metadata>
<defs>
<font id="FuturaMdBTMedium" horiz-adv-x="1237" >
<font-face units-per-em="2048" ascent="1556" descent="-492" />
<missing-glyph horiz-adv-x="618" />
<glyph horiz-adv-x="0" />
<glyph horiz-adv-x="2048" />
<glyph unicode="&#xd;" horiz-adv-x="618" />
<glyph unicode=" "  horiz-adv-x="618" />
<glyph unicode="&#x09;" horiz-adv-x="618" />
<glyph unicode="&#xa0;" horiz-adv-x="618" />
<glyph unicode="!" horiz-adv-x="674" d="M205 92q0 54 38.5 92.5t93 38.5t92.5 -38t38 -92.5t-38 -93t-93 -38.5t-93 38.5t-38 92.5zM223 336v1161h228v-1161h-228z" />
<glyph unicode="&#x22;" horiz-adv-x="643" d="M86 879v557h164v-557h-164zM395 879v557h164v-557h-164z" />
<glyph unicode="#" horiz-adv-x="1575" d="M70 428l61 172h297l90 252h-315l61 172h316l155 436h191l-154 -436h250l156 436h190l-154 -436h291l-59 -172h-293l-90 -252h309l-61 -172h-307l-156 -434h-191l156 434h-252l-158 -434h-190l156 434h-299zM618 598h256l91 254h-256z" />
<glyph unicode="$" d="M137 317l189 84q47 -170 241 -192v457q-205 84 -298 184.5t-93 248t104 250.5t287 126v112h105v-114q288 -26 366 -232l-184 -92q-67 104 -182 125v-402q245 -115 329 -209t84 -233q0 -181 -107.5 -292.5t-305.5 -135.5v-170h-105v166q-358 24 -430 319zM428 1103.5 q0 -63.5 33 -109.5t106 -85v359q-73 -22 -106 -61.5t-33 -103zM672 215q168 43 168 201q0 66 -40 115t-128 92v-408z" />
<glyph unicode="%" horiz-adv-x="1622" d="M57 1093q0 182 87 284t241.5 102t240 -100.5t85.5 -284t-86 -284.5t-240.5 -101t-241 101t-86.5 283zM238 1092q0 -129 37.5 -198t107.5 -69q147 0 147 269q0 130 -37 199t-106 69q-149 0 -149 -270zM317 -39l854 1518h138l-854 -1518h-138zM913 347.5q0 182.5 87 284 t241.5 101.5t240 -100.5t85.5 -283.5t-87 -285.5t-241 -102.5t-240 102t-86 284.5zM1092 346q0 -128 37.5 -197t107.5 -69q149 0 149 268q0 129 -37.5 197.5t-107.5 68.5q-149 0 -149 -268z" />
<glyph unicode="&#x26;" horiz-adv-x="1374" d="M61 383q0 125 78 230.5t248 211.5l-59 64q-101 109 -101 248.5t105.5 232t271 92.5t262.5 -83.5t97 -225.5q0 -107 -68 -195.5t-217 -175.5l305 -354q86 86 188 229l140 -149q-80 -128 -195 -229l246 -279h-275l-118 139q-203 -174 -453 -174q-202 0 -328.5 117 t-126.5 301zM289 375q0 -83 68 -150t156 -67q162 0 321 137l-320 369l-37 -25q-105 -68 -146.5 -124.5t-41.5 -139.5zM451 1153q0 -80 47 -131l73 -88l54 31q112 66 112 174q0 62 -38 101.5t-102 39.5t-105 -40t-41 -87z" />
<glyph unicode="'" horiz-adv-x="334" d="M86 879v557h164v-557h-164z" />
<glyph unicode="(" horiz-adv-x="621" d="M168 539q0 569 238 993l163 -49q-211 -418 -211 -955.5t211 -920.5l-163 -53q-238 440 -238 985z" />
<glyph unicode=")" horiz-adv-x="621" d="M45 -393q211 383 211 922.5t-211 953.5l162 49q237 -423 237 -993q0 -547 -237 -985z" />
<glyph unicode="*" horiz-adv-x="901" d="M106 989l226 115l-226 133l72 123l211 -135l-12 239h145l-14 -241l215 137l72 -123l-232 -127l232 -121l-76 -121l-211 140l14 -246h-145l10 244l-209 -138z" />
<glyph unicode="+" horiz-adv-x="1706" d="M254 528v166h514v527h170v-527h514v-166h-514v-528h-170v528h-514z" />
<glyph unicode="," horiz-adv-x="618" d="M115 -309l194 557l195 -72l-260 -536z" />
<glyph unicode="-" horiz-adv-x="829" d="M147 371v200h535v-200h-535z" />
<glyph unicode="." horiz-adv-x="618" d="M178 111.5q0 54.5 38 93.5t93 39t93 -39t38 -93.5t-38 -92t-93 -37.5t-93 37.5t-38 92z" />
<glyph unicode="/" horiz-adv-x="887" d="M0 -190l717 1687h170l-717 -1687h-170z" />
<glyph unicode="0" d="M92 719.5q0 359.5 140 559.5t390.5 200t386.5 -200.5t136 -561.5t-140.5 -558.5t-388 -197.5t-386 199.5t-138.5 559zM330 719q0 -267 73.5 -410t210.5 -143q293 0 293 557q0 270 -72.5 411.5t-211.5 141.5q-293 0 -293 -557z" />
<glyph unicode="1" d="M238 1262l92 188h428v-1450h-217v1262h-303z" />
<glyph unicode="2" d="M43 0l547 655q196 236 196 385q0 109 -64.5 171.5t-170.5 62.5t-171 -62.5t-73 -164.5h-229q0 197 132 314.5t349.5 117.5t340 -109t122.5 -297q0 -134 -70.5 -270.5t-298.5 -396.5l-186 -216h557v-190h-981z" />
<glyph unicode="3" d="M94 391h228v-12q0 -101 69 -161t194.5 -60t198 66.5t72.5 191.5q0 264 -297 264l-45 -2v192l43 -2q262 0 262 215q0 94 -59.5 149.5t-163 55.5t-164 -51.5t-63.5 -144.5h-215q10 187 127 287t321.5 100t322 -105t117.5 -284q0 -135 -66.5 -221.5t-184.5 -104.5 q139 -25 211.5 -122t72.5 -257q0 -195 -136.5 -309.5t-358.5 -114.5t-351 116.5t-135 313.5z" />
<glyph unicode="4" d="M27 297l852 1182h67v-1016h178v-166h-178v-297h-217v297h-702zM362 463h367v381q0 63 6 145z" />
<glyph unicode="5" d="M78 176l158 174q51 -94 131 -144t178 -50q145 0 235 92.5t90 240.5t-94.5 239t-265 91t-291.5 -125l-59 13l182 743h692v-193h-549l-86 -323q118 49 228 49q209 0 340 -134t131 -364.5t-153 -377t-410 -146.5q-299 0 -457 215z" />
<glyph unicode="6" d="M113 458.5q0 227.5 320 677.5l282 398l182 -92l-424 -553q100 47 191 47q196 0 323 -133t127 -349.5t-142.5 -354.5t-368 -138t-358 135t-132.5 362.5zM340 448.5q0 -130.5 73 -210.5t196.5 -80t198.5 78t75 214t-74 213.5t-198 77.5t-197.5 -81t-73.5 -211.5z" />
<glyph unicode="7" d="M150 1262v188h1009l-737 -1505l-193 86l598 1231h-677z" />
<glyph unicode="8" d="M115 389q0 144 68 244.5t192 140.5q-109 47 -160 123t-51 190q0 176 124 284t330.5 108t329.5 -109.5t123 -292.5q0 -222 -211 -303q122 -40 191 -141.5t69 -239.5q0 -202 -133.5 -317t-368.5 -115t-369 115t-134 313zM344 409.5q0 -118.5 72 -186t200.5 -67.5 t201.5 67.5t73 187t-73 187.5t-200.5 68t-200.5 -69t-73 -187.5zM397 1084q0 -93 58.5 -145t162 -52t162 51.5t58.5 145.5t-58 148t-160.5 54t-162.5 -54.5t-60 -147.5z" />
<glyph unicode="9" d="M104 986.5q0 216.5 142.5 354.5t368.5 138t359.5 -134.5t133.5 -361.5t-321 -677l-283 -398l-180 92l421 551q-90 -45 -190 -45q-197 0 -324 132t-127 348.5zM336 991.5q0 -136.5 74 -215t197.5 -78.5t197.5 82.5t74 213t-72 210.5t-196 80t-199.5 -78t-75.5 -214.5z" />
<glyph unicode=":" horiz-adv-x="674" d="M205 110.5q0 53.5 38.5 92.5t93 39t92.5 -38t38 -92.5t-38 -92t-93 -37.5t-93 37.5t-38 91zM205 794q0 54 38.5 92t93 38t92.5 -37t38 -92t-38 -93t-93 -38t-93 38t-38 92z" />
<glyph unicode=";" horiz-adv-x="674" d="M119 -309l196 557l195 -72l-260 -536zM293 794q0 54 37.5 92t92.5 38t92.5 -37t37.5 -92t-38 -93t-92.5 -38t-92 38t-37.5 92z" />
<glyph unicode="&#x3c;" horiz-adv-x="1706" d="M264 530v160l1178 486v-185l-934 -381l934 -381v-182z" />
<glyph unicode="=" horiz-adv-x="1706" d="M254 322v165h1198v-165h-1198zM254 733v168h1198v-168h-1198z" />
<glyph unicode="&#x3e;" horiz-adv-x="1706" d="M264 47v182l934 381l-934 381v185l1178 -486v-160z" />
<glyph unicode="?" horiz-adv-x="1114" d="M207 1153q0 157 95.5 251.5t256.5 94.5t257.5 -93.5t96.5 -250.5q0 -115 -56.5 -188.5t-223.5 -155.5l-24 -12q-197 -98 -197 -185q0 -50 39 -87.5t94 -37.5q137 0 141 156h178v-20q0 -148 -83 -229t-230.5 -81t-239.5 83.5t-92 206.5t63.5 201t218 152t189.5 112.5 t35 99t-47.5 104t-125 43.5t-124.5 -53.5t-47 -147.5h-172zM397 92q0 54 39 92.5t93.5 38.5t92 -38t37.5 -92.5t-38 -93t-92.5 -38.5t-93 38.5t-38.5 92.5z" />
<glyph unicode="@" horiz-adv-x="2048" d="M98 522q0 334 205 586q300 365 813 365q166 0 315 -45.5t268 -137.5q251 -194 251 -526q0 -162 -65 -302t-185 -237q-141 -112 -318 -112q-106 0 -157 40.5t-51 125.5v4q-55 -87 -128 -127.5t-176 -40.5q-152 0 -232.5 86.5t-80.5 249.5q0 233 138 395t321.5 162 t259.5 -142l55 107h154l-148 -586l-4.5 -22.5t-3.5 -41t26.5 -46.5t73.5 -23t103.5 30.5t117 95.5t98.5 166.5t38 215.5q0 253 -187 411t-489 158q-279 0 -471 -125q-181 -113 -279 -291t-98 -395q0 -312 209.5 -499t554 -187t619.5 191l67 -99q-299 -227 -674 -227 q-385 0 -632 190q-308 234 -308 633zM741 444q0 -98 45.5 -151t132 -53t160 66.5t99.5 172.5l55 228q-14 84 -61.5 130t-122.5 46q-127 0 -217.5 -128.5t-90.5 -310.5z" />
<glyph unicode="A" horiz-adv-x="1356" d="M-31 0l709 1522l708 -1522h-251l-166 377h-580l-170 -377h-250zM477 575h408l-150 334q-29 72 -55 166q-22 -89 -53 -166z" />
<glyph unicode="B" horiz-adv-x="1180" d="M168 0v1464h369q158 0 233.5 -17t136 -61.5t98 -125.5t37.5 -188.5t-54 -186t-157 -109.5q128 -20 201.5 -116.5t73.5 -243.5q0 -188 -119 -305q-60 -61 -149 -86t-299 -25h-371zM401 199h82q125 0 187 10t102 37t64 76t24 114q0 137 -112 197q-66 33 -193 33h-154v-467z M401 846h91q170 0 240.5 46.5t70.5 161.5t-65 163.5t-246 48.5h-91v-420z" />
<glyph unicode="C" horiz-adv-x="1470" d="M104 729q0 331 224 551q221 219 555 219q254 0 473 -151l-13 -240q-202 172 -446 172t-394.5 -154t-150.5 -395t146.5 -395t387 -154t455.5 185v-269q-191 -137 -454 -137q-342 0 -561 217q-107 105 -164.5 247.5t-57.5 303.5z" />
<glyph unicode="D" horiz-adv-x="1516" d="M168 0v1464h321q313 0 440.5 -31.5t223.5 -105.5q258 -197 258 -596q0 -395 -258 -594q-96 -74 -218.5 -105.5t-381.5 -31.5h-385zM406 215h200q165 0 247.5 22t154.5 83.5t113.5 167t41.5 245.5q0 280 -166 422q-62 52 -148.5 74t-270.5 22h-172v-1036z" />
<glyph unicode="E" horiz-adv-x="1090" d="M168 0v1464h817v-202h-579v-367h579v-209h-579v-473h579v-213h-817z" />
<glyph unicode="F" horiz-adv-x="1075" d="M168 0v1464h817v-202h-579v-365h579v-209h-579v-688h-238z" />
<glyph unicode="G" horiz-adv-x="1645" d="M104 729q0 337 224 553q219 215 559 215q342 0 553 -256l-174 -131q-146 170 -379.5 170t-384 -152.5t-150.5 -398.5t150.5 -400.5t372.5 -154.5t339 95t117 259v21h-352v201h580l4 -138q0 -309 -177 -480t-499 -171q-357 0 -568 213q-215 219 -215 555z" />
<glyph unicode="H" horiz-adv-x="1532" d="M168 0v1464h238v-540h720v540h238v-1464h-238v711h-720v-711h-238z" />
<glyph unicode="I" horiz-adv-x="584" d="M172 0v1464h238v-1464h-238z" />
<glyph unicode="J" horiz-adv-x="807" d="M4 113l152 153q71 -84 142 -84t99.5 46t28.5 171v1065h236v-1142q0 -186 -82 -273.5t-256 -87.5q-186 0 -320 152z" />
<glyph unicode="K" horiz-adv-x="1270" d="M168 0v1464h238v-606l526 606h291l-580 -651l649 -813h-307l-579 748v-748h-238z" />
<glyph unicode="L" horiz-adv-x="963" d="M168 0v1464h238v-1251h532v-213h-770z" />
<glyph unicode="M" horiz-adv-x="1767" d="M27 0l346 1526l432 -924q20 -45 80 -199q21 63 49.5 124.5t34.5 75.5l422 923l354 -1526h-221l-162 723q-4 17 -12.5 87.5t-14.5 112.5q-18 -100 -67 -202l-383 -780l-383 796q-45 91 -72 186q-2 -97 -27 -202l-157 -721h-219z" />
<glyph unicode="N" horiz-adv-x="1645" d="M168 0v1522l930 -895q85 -85 159 -178v1015h220v-1521l-949 911q-79 77 -141 164v-1018h-219z" />
<glyph unicode="O" horiz-adv-x="1774" d="M104 729q0 321 228 545q229 223 555 223q324 0 553 -223q229 -227 229 -546t-229 -542q-233 -225 -553 -225q-158 0 -301.5 58.5t-254.5 166.5q-227 222 -227 543zM352 729q0 -227 156 -387t379 -160q219 0 377 160q157 161 157 388t-157 388q-154 160 -377 160 t-379 -160q-156 -158 -156 -389z" />
<glyph unicode="P" horiz-adv-x="1090" d="M168 0v1464h360q160 0 235.5 -17.5t138 -63t101.5 -132t39 -190.5t-39 -192t-101.5 -133t-138 -62t-235.5 -17h-137v-657h-223zM406 852h61q198 0 264 43t66 156t-70.5 161t-259.5 48h-61v-408z" />
<glyph unicode="Q" horiz-adv-x="1774" d="M104 731q0 321 228 543q227 223 555 223q326 0 553 -223q229 -225 229 -540.5t-221 -534.5l311 -336h-284l-191 207q-194 -105 -410 -105q-149 0 -292 59t-252 166q-226 220 -226 541zM352 730.5q0 -229.5 155.5 -387t385.5 -157.5q123 0 231 56l-262 282h289l141 -151 q129 156 129 358q0 230 -155 387q-160 162 -379 162q-221 0 -379 -162q-156 -158 -156 -387.5z" />
<glyph unicode="R" horiz-adv-x="1147" d="M168 0v1464h332q146 0 226.5 -19t143 -67.5t99.5 -132.5t37 -184q0 -355 -336 -395l504 -666h-269l-487 655h-27v-655h-223zM406 840h43q189 0 251 44t62 160.5t-66.5 166t-246.5 49.5h-43v-420z" />
<glyph unicode="S" horiz-adv-x="1124" d="M84 293l190 88q55 -201 283 -201q106 0 168.5 59t62.5 158q0 138 -260 252q-242 118 -322.5 213.5t-80.5 233.5q0 179 121.5 290t301.5 111q352 0 439 -242l-186 -96q-85 133 -217 133q-96 0 -152.5 -50t-56.5 -134q0 -132 248 -246q19 -9 30 -14q217 -100 298 -195.5 t81 -238.5q0 -208 -131 -330.5t-336 -122.5t-324.5 86t-156.5 246z" />
<glyph unicode="T" horiz-adv-x="1042" d="M14 1262v202h1014v-202h-387v-1262h-238v1262h-389z" />
<glyph unicode="U" horiz-adv-x="1524" d="M162 553v911h235v-889q0 -397 364.5 -397t364.5 397v889h238v-911q0 -592 -602 -592q-302 0 -451 147t-149 445z" />
<glyph unicode="V" horiz-adv-x="1266" d="M-20 1464h247l328 -780q56 -132 78 -235q27 112 80 235l327 780h246l-653 -1521z" />
<glyph unicode="W" horiz-adv-x="1923" d="M-6 1464h235l277 -739q50 -136 78 -231q56 187 80 246l294 782l310 -797q45 -119 78 -233q18 83 71 227l275 745h237l-567 -1521l-334 835q-43 109 -72 205q-34 -116 -69 -209l-328 -831z" />
<glyph unicode="X" horiz-adv-x="1171" d="M0 0l475 766l-420 698h250l211 -358q17 -28 63 -116l15 -29q33 65 80 143l223 360h244l-428 -694l461 -770h-263l-249 422q-40 75 -74 141q-37 -74 -80 -145l-256 -418h-252z" />
<glyph unicode="Y" horiz-adv-x="1214" d="M-10 1464h250l307 -497q31 -54 61 -117q29 73 62 123l315 491h238l-504 -794v-670h-236v670z" />
<glyph unicode="Z" horiz-adv-x="1180" d="M18 0l746 1262h-621v202h987l-739 -1251h748v-213h-1121z" />
<glyph unicode="[" horiz-adv-x="621" d="M199 -414v1911h381v-156h-191v-1597h191v-158h-381z" />
<glyph unicode="\" horiz-adv-x="887" d="M0 1497h170l717 -1687h-170z" />
<glyph unicode="]" horiz-adv-x="621" d="M43 -256h188v1597h-188v156h379v-1911h-379v158z" />
<glyph unicode="^" horiz-adv-x="2048" d="M418 899l497 561h218l495 -561h-207l-397 397l-399 -397h-207z" />
<glyph unicode="_" horiz-adv-x="1024" d="M0 -311h1024v-172h-1024v172z" />
<glyph unicode="`" horiz-adv-x="1024" d="M238 1364h225l190 -272h-123z" />
<glyph unicode="a" horiz-adv-x="1192" d="M80 469q0 233 118 372.5t308 139.5q116 0 198.5 -48.5t120.5 -139.5v155h217v-948h-217v123q-115 -162 -314.5 -162t-315 137.5t-115.5 370.5zM307 468.5q0 -150.5 68 -232.5t188.5 -82t194 89t73.5 235t-68.5 228t-191.5 82t-193.5 -84.5t-70.5 -235z" />
<glyph unicode="b" horiz-adv-x="1192" d="M150 0v1550h217v-757q38 90 121.5 139t199.5 49q189 0 306.5 -139.5t117.5 -372.5t-115.5 -370.5t-315 -137.5t-314.5 162v-123h-217zM360 478q0 -146 74.5 -235t195 -89t188 82t67.5 232.5t-70.5 235t-193.5 84.5t-192 -82t-69 -228z" />
<glyph unicode="c" horiz-adv-x="930" d="M80 472.5q0 227.5 145.5 368t380.5 140.5q146 0 252 -59v-244q-103 113 -248 113t-225 -86t-80 -231t80.5 -229.5t230 -84.5t242.5 119v-250q-120 -68 -274 -68q-223 0 -363.5 142t-140.5 369.5z" />
<glyph unicode="d" horiz-adv-x="1192" d="M80 469q0 233 118 372.5t308 139.5q116 0 198.5 -48.5t120.5 -139.5v757h217v-1550h-217v123q-115 -162 -314.5 -162t-315 137.5t-115.5 370.5zM307 468.5q0 -150.5 68 -232.5t189 -82t194 88.5t73 235t-68.5 228.5t-191.5 82t-193.5 -84.5t-70.5 -235z" />
<glyph unicode="e" horiz-adv-x="1139" d="M80 466.5q0 227.5 139.5 371t363.5 143.5t352 -131t128 -367v-41h-758q8 -133 79 -207.5t182.5 -74.5t181.5 44t122 142l183 -102q-158 -283 -475 -283q-228 0 -363 139t-135 366.5zM319 588h519q-27 209 -256 209q-211 0 -263 -209z" />
<glyph unicode="f" horiz-adv-x="627" d="M14 758v190h166v254q0 189 78.5 279t243.5 90q74 0 147 -21v-196q-52 30 -118 30t-100 -48t-34 -162v-226h228v-190h-228v-758h-217v758h-166z" />
<glyph unicode="g" horiz-adv-x="1192" d="M80 469q0 233 118 372.5t308 139.5q116 0 198.5 -48.5t120.5 -139.5v155h217v-889q0 -278 -111 -391.5t-374 -113.5q-196 0 -313 82.5t-119 219.5l233 1q10 -125 203 -125q139 0 200 61t62 204l2 126q-115 -162 -314.5 -162t-315 137.5t-115.5 370.5zM307 468.5 q0 -150.5 68 -232.5t188.5 -82t194 89t73.5 235t-68.5 228t-191.5 82t-193.5 -84.5t-70.5 -235z" />
<glyph unicode="h" horiz-adv-x="1204" d="M150 0v1550h204v-757q65 98 153 143t204 45q222 0 307 -133q25 -39 36 -91t11 -182v-575h-219v487q0 187 -45.5 248.5t-161.5 61.5q-158 0 -229 -107q-24 -34 -33.5 -87.5t-9.5 -170.5v-432h-217z" />
<glyph unicode="i" horiz-adv-x="537" d="M131 1357.5q0 55.5 40.5 95.5t97.5 40t95.5 -38.5t38.5 -96.5t-39 -97.5t-95.5 -39.5t-97 40.5t-40.5 96zM160 0v948h217v-948h-217z" />
<glyph unicode="j" horiz-adv-x="537" d="M131 1357.5q0 55.5 40.5 95.5t97.5 40t95.5 -38.5t38.5 -96.5t-39 -97.5t-95.5 -39.5t-97 40.5t-40.5 96zM160 -446v1394h217v-1394h-217z" />
<glyph unicode="k" horiz-adv-x="1057" d="M150 0v1550h217v-995l397 393h268l-430 -418l471 -530h-280l-426 489v-489h-217z" />
<glyph unicode="l" horiz-adv-x="537" d="M160 0v1550h217v-1550h-217z" />
<glyph unicode="m" horiz-adv-x="1792" d="M150 0v948h204v-155q65 99 147.5 144.5t194.5 45.5q220 0 295 -188q75 98 159.5 143t185.5 45q200 0 280 -135q35 -60 35 -197v-651h-217v487q0 191 -40.5 251.5t-156.5 60.5t-170.5 -81.5t-54.5 -285.5v-432h-219v487q0 176 -42.5 244t-146.5 68q-64 0 -117 -29 t-78.5 -71t-33.5 -90t-8 -177v-432h-217z" />
<glyph unicode="n" horiz-adv-x="1204" d="M150 0v948h204v-155q65 98 153 143t204 45q222 0 307 -133q25 -39 36 -91t11 -182v-575h-219v487q0 187 -45.5 248.5t-161.5 61.5q-158 0 -229 -107q-24 -34 -33.5 -87.5t-9.5 -170.5v-432h-217z" />
<glyph unicode="o" horiz-adv-x="1204" d="M80 473q0 212 153 361q151 147 367 147q219 0 371 -150q153 -149 153 -358q0 -215 -151 -360q-158 -152 -373 -152t-367 150q-153 151 -153 362zM309 471q0 -132 85.5 -223.5t207.5 -91.5t207.5 91.5t85.5 223.5t-85 223.5t-207.5 91.5t-208 -91.5t-85.5 -223.5z" />
<glyph unicode="p" horiz-adv-x="1192" d="M150 -446v1394h217v-155q38 90 121.5 139t199.5 49q189 0 306.5 -139.5t117.5 -372.5t-115.5 -370.5t-315 -137.5t-314.5 162v-569h-217zM360 477q0 -147 73.5 -235t195 -88t189 82t67.5 232.5t-70.5 235t-193.5 84.5t-192 -82t-69 -229z" />
<glyph unicode="q" horiz-adv-x="1192" d="M80 469q0 233 118 372.5t308 139.5q116 0 198.5 -48.5t120.5 -139.5v155h217v-1394h-217v569q-115 -162 -314.5 -162t-315 137.5t-115.5 370.5zM307 468.5q0 -150.5 68 -232.5t189.5 -82t194 88t72.5 235t-68.5 229t-191.5 82t-193.5 -84.5t-70.5 -235z" />
<glyph unicode="r" horiz-adv-x="754" d="M150 0v950h217v-153q69 184 235 184q90 0 178 -43l-78 -184q-55 39 -133 39q-108 0 -155 -86.5t-47 -290.5v-416h-217z" />
<glyph unicode="s" horiz-adv-x="872" d="M41 172l180 98q41 -145 213 -145q73 0 114.5 33.5t41.5 91.5q0 77 -148 132q-214 77 -282 150t-68 166q0 127 99.5 206t263.5 79q110 0 188.5 -40.5t114.5 -115.5l-154 -106q-17 45 -59.5 71.5t-101.5 26.5t-96.5 -29.5t-37.5 -78.5q0 -74 168 -135q205 -73 265.5 -143.5 t60.5 -168.5q0 -142 -103 -222.5t-263 -80.5t-252 52t-144 159z" />
<glyph unicode="t" horiz-adv-x="621" d="M35 758v190h166v359h217v-359h166v-190h-166v-758h-217v758h-166z" />
<glyph unicode="u" horiz-adv-x="1204" d="M143 479v469h217v-534q0 -138 57 -198t185 -60t185 60t57 198v534h217v-469q0 -272 -109 -395t-350 -123t-350 122t-109 396z" />
<glyph unicode="v" horiz-adv-x="967" d="M-14 948h237l207 -477q24 -52 53 -171q22 93 56 171l206 477h236l-498 -1005z" />
<glyph unicode="w" horiz-adv-x="1536" d="M-14 948h231l213 -457q28 -63 47 -191q2 68 49 171l232 512h18l236 -512q41 -90 45 -171q18 109 55 189l209 459h229l-493 -1005l-219 493q-41 94 -70 189q-45 -132 -66 -181l-225 -501z" />
<glyph unicode="x" horiz-adv-x="928" d="M-25 0l359 510l-307 438h239l133 -196q40 -57 66 -115q16 32 67 117l132 194h237l-307 -440l356 -508h-237l-176 249q-59 88 -74 130q-45 -85 -76 -131l-172 -248h-240z" />
<glyph unicode="y" horiz-adv-x="965" d="M2 948h240l174 -491q32 -95 45 -186q7 27 67 171l234 506h235l-684 -1394h-223l260 528z" />
<glyph unicode="z" horiz-adv-x="920" d="M-2 0l528 758h-475v190h828l-517 -758h517v-190h-881z" />
<glyph unicode="{" horiz-adv-x="1024" d="M162 442v179l43 -3q126 0 178.5 59t52.5 202v247q0 145 23 206.5t73.5 91.5t115.5 41.5t181 11.5h45v-179l-47 2q-109 0 -147.5 -41.5t-38.5 -173.5v-241q0 -155 -44 -220.5t-159 -93.5q114 -27 158.5 -92.5t44.5 -220.5v-240q0 -132 39.5 -174.5t148.5 -42.5l45 2v-176 h-63q-188 0 -272 49q-57 34 -80 96t-23 203v248q0 144 -52.5 203t-178.5 59z" />
<glyph unicode="|" horiz-adv-x="1024" d="M424 -483v2048h178v-2048h-178z" />
<glyph unicode="}" horiz-adv-x="1024" d="M152 -238l45 -2q109 0 147.5 42t38.5 175v240q0 153 45 219t160 94q-115 28 -160 93.5t-45 220.5v241q0 132 -38 173.5t-146 41.5l-47 -2v179h45q207 0 288 -50q57 -33 80 -95t23 -206v-247q0 -144 52 -202.5t179 -58.5l43 3v-179l-43 2q-126 0 -178.5 -59t-52.5 -203 v-248q0 -143 -23 -204t-73 -91t-115 -41.5t-180 -11.5h-45v176z" />
<glyph unicode="~" horiz-adv-x="1706" d="M178 434v187q211 143 387 143q138 0 336 -75q164 -58 250 -58q166 0 379 153v-184q-205 -141 -381 -141q-94 0 -191 35q-25 8 -76 26q-212 74 -319 74q-158 0 -385 -160z" />
<glyph unicode="&#xa0;" />
<glyph unicode="&#xa1;" horiz-adv-x="674" d="M205 1368q0 54 38 91.5t93 37.5t93 -37.5t38 -92t-38 -92.5t-92.5 -38t-93 38.5t-38.5 92.5zM223 -39v1163h228v-1163h-228z" />
<glyph unicode="&#xa2;" d="M186 736q0 195 116.5 324.5t320.5 160.5v161h104v-157q131 -4 266 -60v-204q-113 72 -266 83v-598q180 29 266 97v-209q-114 -66 -266 -72v-203h-104v207q-195 15 -316 145t-121 325zM383 744q0 -117 63.5 -197t176.5 -101v596q-107 -18 -173.5 -99.5t-66.5 -198.5z" />
<glyph unicode="&#xa3;" d="M74 49q115 173 262 187q47 94 47 176t-47 174h-250v141h188q-90 151 -90 299q0 200 138 326.5t354 126.5t337.5 -114t139.5 -329l-223 -30q-20 280 -258 280q-112 0 -182 -69.5t-70 -180.5q0 -75 90 -309h358v-141h-313q16 -52 16 -109q0 -139 -96 -241h6q82 0 209 -45.5 t178 -45.5q146 0 207 107l133 -119q-47 -85 -124.5 -130.5t-173.5 -45.5t-257 48t-229 48q-113 0 -219 -104z" />
<glyph unicode="&#xa4;" d="M0 543l25 110h132l-1 68q0 44 4 80h-160l25 112h147q47 261 215.5 413.5t409.5 152.5q191 0 354 -131v-242q-141 166 -336 166q-150 0 -259.5 -98t-139.5 -261h583l-34 -112h-568q-4 -68 -4 -101v-12q0 -13 2 -35h523l-37 -110h-471q31 -173 137.5 -274t255.5 -101 q186 0 356 156l-8 -244q-165 -119 -385 -119t-386.5 157t-211.5 425h-168z" />
<glyph unicode="&#xa5;" d="M0 1452h240l307 -494q24 -37 61 -120q27 71 62 127l315 487h229l-266 -420h256v-145h-350l-102 -164h452v-145h-493v-578h-219v578h-482v145h445l-101 164h-344v145h256z" />
<glyph unicode="&#xa6;" horiz-adv-x="1024" d="M424 -350v758h178v-758h-178zM424 674v758h178v-758h-178z" />
<glyph unicode="&#xa7;" horiz-adv-x="1090" d="M84 539q0 128 68 223.5t194 144.5q-180 84 -180 271q0 149 105 235t284.5 86t272 -86.5t92.5 -249.5v-20h-187q-6 182 -186 182q-79 0 -128.5 -40.5t-49.5 -100t46.5 -100t237.5 -117t274 -175t83 -260.5q0 -279 -275 -360q94 -44 145.5 -119.5t51.5 -169.5 q0 -154 -105.5 -244t-284.5 -90t-283.5 94t-104.5 248v21h202q8 -182 187 -182q87 0 138.5 40.5t51.5 108.5q0 95 -206 181l-42 18q-220 95 -280 152q-121 117 -121 309zM301 537.5q0 -107.5 73 -182t177 -74.5t178 74.5t74 181t-74 182.5t-178 76t-177 -75t-73 -182.5z" />
<glyph unicode="&#xa8;" horiz-adv-x="1024" d="M209 1253q0 50 36 85.5t85 35.5t84 -34.5t35 -86t-33.5 -86t-85 -34.5t-86.5 35t-35 85zM573 1253q0 50 36 85.5t85 35.5t84 -34.5t35 -86t-33.5 -86t-85 -34.5t-86.5 35t-35 85z" />
<glyph unicode="&#xa9;" horiz-adv-x="1706" d="M113 731q0 145 57 280.5t163 242.5q212 216 519 216q311 0 526 -217q215 -215 215 -522q0 -313 -213 -520q-108 -107 -244.5 -164t-283.5 -57q-301 0 -520 219q-219 217 -219 522zM223 731q0 -259 187 -444q185 -187 444 -187q256 0 449 189q182 180 182 442 q0 263 -182 447q-186 184 -449 184q-264 0 -444 -182q-187 -191 -187 -449zM457 727q0 206 109.5 329.5t291.5 123.5q147 0 243 -77t105 -200h-166q-10 74 -60 114t-139.5 40t-145.5 -86.5t-56 -239t57.5 -235t150.5 -82.5q179 0 202 168h165q-7 -135 -106.5 -217t-268 -82 t-275.5 119t-107 325z" />
<glyph unicode="&#xaa;" horiz-adv-x="895" d="M59 1128.5q0 162.5 89 260.5t231 98q87 0 149.5 -34t89.5 -97v108h164v-663h-164v86q-83 -113 -233.5 -113t-238 96t-87.5 258.5zM231 1128.5q0 -105.5 51 -162.5t141.5 -57t146 62.5t55.5 164.5t-52 160t-144.5 58t-145 -60t-52.5 -165.5z" />
<glyph unicode="&#xab;" horiz-adv-x="930" d="M80 469l254 408l137 -84l-205 -324l205 -324l-137 -84zM459 469l254 408l139 -84l-207 -324l207 -324l-139 -84z" />
<glyph unicode="&#xac;" horiz-adv-x="1706" d="M254 696v166h1198v-502h-166v336h-1032z" />
<glyph unicode="&#xad;" horiz-adv-x="829" d="M147 371v200h535v-200h-535z" />
<glyph unicode="&#xae;" horiz-adv-x="1706" d="M113 731q0 147 57.5 284t165.5 245q210 210 517 210q314 0 529 -221q211 -213 211 -518q0 -313 -217 -524q-223 -217 -524 -217q-147 0 -282.5 57.5t-241.5 164.5q-215 219 -215 519zM223 731q0 -257 183 -442q90 -91 204 -140t239 -49q262 0 451 185q185 179 185 436 q0 269 -180 453q-190 188 -451 188q-260 0 -440 -180q-191 -195 -191 -451zM551 330v829h319q351 0 351 -225q0 -91 -48 -150.5t-137 -78.5l185 -375h-199l-164 346h-129v-346h-178zM729 786h117q100 0 146 30.5t46 98t-48 100t-152 32.5h-109v-261z" />
<glyph unicode="&#xaf;" horiz-adv-x="1024" d="M248 1153v141h526v-141h-526z" />
<glyph unicode="&#xb0;" horiz-adv-x="674" d="M43 1163.5q0 124.5 86 210.5t208 86t209 -87t87 -209t-87 -209t-210 -87t-208 85.5t-85 210zM152 1165.5q0 -76.5 54.5 -131.5t131.5 -55t130.5 54.5t53.5 131.5t-53.5 131t-130.5 54t-131.5 -54t-54.5 -130.5z" />
<glyph unicode="&#xb1;" horiz-adv-x="1706" d="M254 14v168h1198v-168h-1198zM254 707v165h514v334h170v-334h514v-165h-514v-334h-170v334h-514z" />
<glyph unicode="&#xb2;" horiz-adv-x="817" d="M29 575l360 394q129 141 129 231q0 65 -42 102t-112 37t-113 -36.5t-48 -97.5l-152 -1q0 118 87.5 188t231 70t224 -65t80.5 -178q0 -79 -45.5 -159.5t-196.5 -240.5l-125 -129h369v-115h-647z" />
<glyph unicode="&#xb3;" horiz-adv-x="817" d="M62 811h151v-8q0 -61 45.5 -97t128.5 -36t130.5 40t47.5 115q0 158 -196 158h-29v115l29 -2q172 0 172 129q0 56 -39.5 89.5t-108 33.5t-108 -30.5t-42.5 -86.5h-141q7 111 83.5 171t212 60t213 -63t77.5 -157t-44 -145.5t-122 -62.5q92 -15 140.5 -73.5t48.5 -164.5 t-90.5 -174.5t-238 -68.5t-232 69.5t-88.5 188.5z" />
<glyph unicode="&#xb4;" horiz-adv-x="1024" d="M371 1092l190 272h225l-292 -272h-123z" />
<glyph unicode="&#xb5;" horiz-adv-x="1208" d="M-92 -430l297 1511h229l-125 -635q-12 -58 -12 -104q0 -96 46.5 -146.5t135.5 -50.5q122 0 193.5 88.5t111.5 292.5l109 555h225l-145 -739q-19 -93 -19 -131t15.5 -53t40.5 -15q34 0 46 2l-32 -159q-60 -17 -150 -17q-149 0 -149 125v15q-41 -67 -108 -104.5t-146 -37.5 q-157 0 -235 109l-99 -506h-229z" />
<glyph unicode="&#xb6;" horiz-adv-x="1024" d="M55 1134q0 154 107 249.5t284 95.5h523v-99h-117v-1380h-129v1380h-168v-1380h-131v784q-168 6 -268.5 101t-100.5 249z" />
<glyph unicode="&#xb7;" horiz-adv-x="618" d="M178 721.5q0 54.5 38 92.5t93.5 38t93 -38t37.5 -92.5t-38 -93t-92.5 -38.5t-93 38.5t-38.5 93z" />
<glyph unicode="&#xb8;" horiz-adv-x="1024" d="M274 -287q158 -37 251 -37t93 68q0 39 -31.5 56.5t-101.5 17.5l-41 -2v184h86v-86h17q223 0 223 -174q0 -83 -61.5 -127.5t-171 -44.5t-263.5 39v106z" />
<glyph unicode="&#xb9;" horiz-adv-x="817" d="M158 1333l61 113h281v-871h-142v758h-200z" />
<glyph unicode="&#xba;" horiz-adv-x="903" d="M59 1132.5q0 148.5 117 251.5q111 103 275 103q165 0 278 -105q115 -105 115 -249q0 -151 -115 -252q-115 -107 -278 -107q-162 0 -277 105t-115 253.5zM231 1130.5q0 -93.5 64.5 -157.5t156 -64t156 64.5t64.5 157t-64 157t-156 64.5t-156.5 -64t-64.5 -157.5z" />
<glyph unicode="&#xbb;" horiz-adv-x="930" d="M82 145l205 324l-205 324l137 84l254 -408l-254 -408zM459 145l207 324l-207 324l139 84l254 -408l-254 -408z" />
<glyph unicode="&#xbc;" horiz-adv-x="1901" d="M150 1339l57 105h270v-811h-137v706h-190zM438 -39l887 1518h137l-887 -1518h-137zM1139 166l536 661h43v-567h113v-94h-113v-166h-137v166h-442zM1352 260h229v213q0 36 4 80z" />
<glyph unicode="&#xbd;" horiz-adv-x="1901" d="M150 1339l57 105h270v-811h-137v706h-190zM438 -39l887 1518h137l-887 -1518h-137zM1149 0l344 367q125 133 125 215q0 61 -40.5 96t-107.5 35t-107.5 -34.5t-45.5 -92.5h-146q0 110 83.5 175.5t220.5 65.5t213.5 -60.5t76.5 -166.5q0 -75 -45 -152.5t-186 -220.5 l-117 -121h350v-106h-618z" />
<glyph unicode="&#xbe;" horiz-adv-x="1901" d="M60 852h143v-6q0 -58 43.5 -91.5t122.5 -33.5t124.5 37.5t45.5 107.5q0 148 -187 148l-28 -2v108l26 -2q166 0 166 121q0 52 -37 83.5t-100 31.5q-140 0 -148 -111h-135q8 106 81 161.5t202.5 55.5t203.5 -58t74 -146q0 -172 -159 -195q180 -29 180 -213 q0 -109 -86.5 -173.5t-226 -64.5t-220.5 66t-85 176zM438 -39l887 1518h137l-887 -1518h-137zM1139 166l536 661h43v-567h113v-94h-113v-166h-137v166h-442zM1352 260h229v213q0 36 4 80z" />
<glyph unicode="&#xbf;" horiz-adv-x="1114" d="M193 305q0 114 56.5 188t225.5 156l20 10q199 99 199 187q0 51 -39 88t-100 37t-97.5 -40.5t-38.5 -115.5h-177v21q0 148 83 228.5t230.5 80.5t239.5 -83.5t92 -206.5t-63.5 -201t-217 -151t-188.5 -112t-35 -100t47.5 -104.5t125 -43.5t123.5 53.5t46 147.5h172l2 -37 q0 -158 -94.5 -252t-255.5 -94t-258.5 94t-97.5 250zM449 1367.5q0 54.5 38 92t93 37.5t93 -37.5t38 -91.5t-39 -92.5t-93.5 -38.5t-92 38t-37.5 92.5z" />
<glyph unicode="&#xc0;" horiz-adv-x="1356" d="M-31 0l709 1522l708 -1522h-251l-166 377h-580l-170 -377h-250zM404 1880h225l190 -272h-123zM477 575h408l-150 334q-29 72 -55 166q-22 -89 -53 -166z" />
<glyph unicode="&#xc1;" horiz-adv-x="1356" d="M-31 0l709 1522l708 -1522h-251l-166 377h-580l-170 -377h-250zM477 575h408l-150 334q-29 72 -55 166q-22 -89 -53 -166zM537 1608l190 272h225l-292 -272h-123z" />
<glyph unicode="&#xc2;" horiz-adv-x="1356" d="M-31 0l709 1522l708 -1522h-251l-166 377h-580l-170 -377h-250zM381 1608l193 272h208l193 -272h-123l-174 157l-174 -157h-123zM477 575h408l-150 334q-29 72 -55 166q-22 -89 -53 -166z" />
<glyph unicode="&#xc3;" horiz-adv-x="1356" d="M-31 0l709 1522l708 -1522h-251l-166 377h-580l-170 -377h-250zM385 1624q45 209 189 209q31 0 61 -8l117 -31q16 -4 47 -4q63 0 82 67h90q-18 -99 -69.5 -153.5t-125.5 -54.5q-25 0 -53 6l-124 32q-27 5 -38 5q-65 0 -86 -68h-90zM477 575h408l-150 334q-29 72 -55 166 q-22 -89 -53 -166z" />
<glyph unicode="&#xc4;" horiz-adv-x="1356" d="M-31 0l709 1522l708 -1522h-251l-166 377h-580l-170 -377h-250zM375 1769q0 50 36 85.5t85 35.5t84 -34.5t35 -86t-33.5 -86t-85 -34.5t-86.5 35t-35 85zM477 575h408l-150 334q-29 72 -55 166q-22 -89 -53 -166zM739 1769q0 50 36 85.5t85 35.5t84 -34.5t35 -86 t-33.5 -86t-85 -34.5t-86.5 35t-35 85z" />
<glyph unicode="&#xc5;" horiz-adv-x="1356" d="M-31 0l684 1464h52l681 -1464h-251l-166 377h-580l-170 -377h-250zM442 1734.5q0 99.5 68.5 168.5t167 69t168 -69.5t69.5 -168t-68.5 -167t-168.5 -68.5t-168 68t-68 167.5zM477 575h408l-150 334q-29 72 -55 166q-22 -89 -53 -166zM565 1734.5q0 -47.5 33.5 -80 t81 -32.5t81.5 33t34 80t-33.5 80.5t-81.5 33.5t-81.5 -33.5t-33.5 -81z" />
<glyph unicode="&#xc6;" horiz-adv-x="1866" d="M-31 0l684 1464h676l84 -202h-536l129 -359h491l78 -209h-490l179 -481h538l80 -213h-772l-139 377h-582l-170 -377h-250zM477 575h422l-123 334q-50 133 -71 244q-22 -104 -74 -223z" />
<glyph unicode="&#xc7;" horiz-adv-x="1470" d="M104 729q0 331 224 551q221 219 555 219q254 0 473 -151l-13 -240q-202 172 -446 172t-394.5 -154t-150.5 -395t146.5 -395t387 -154t455.5 185v-269q-191 -137 -454 -137q-342 0 -561 217q-107 105 -164.5 247.5t-57.5 303.5zM630 -287q158 -37 251 -37t93 68 q0 39 -31.5 56.5t-101.5 17.5l-41 -2v184h86v-86h17q223 0 223 -174q0 -83 -61.5 -127.5t-171 -44.5t-263.5 39v106z" />
<glyph unicode="&#xc8;" horiz-adv-x="1090" d="M168 0v1464h817v-202h-579v-367h579v-209h-579v-473h579v-213h-817zM306 1880h225l190 -272h-123z" />
<glyph unicode="&#xc9;" horiz-adv-x="1090" d="M168 0v1464h817v-202h-579v-367h579v-209h-579v-473h579v-213h-817zM439 1608l190 272h225l-292 -272h-123z" />
<glyph unicode="&#xca;" horiz-adv-x="1090" d="M168 0v1464h817v-202h-579v-367h579v-209h-579v-473h579v-213h-817zM283 1608l193 272h208l193 -272h-123l-174 157l-174 -157h-123z" />
<glyph unicode="&#xcb;" horiz-adv-x="1090" d="M168 0v1464h817v-202h-579v-367h579v-209h-579v-473h579v-213h-817zM277 1769q0 50 36 85.5t85 35.5t84 -34.5t35 -86t-33.5 -86t-85 -34.5t-86.5 35t-35 85zM641 1769q0 50 36 85.5t85 35.5t84 -34.5t35 -86t-33.5 -86t-85 -34.5t-86.5 35t-35 85z" />
<glyph unicode="&#xcc;" horiz-adv-x="584" d="M19 1880h225l190 -272h-123zM172 0v1464h238v-1464h-238z" />
<glyph unicode="&#xcd;" horiz-adv-x="584" d="M152 1608l190 272h225l-292 -272h-123zM172 0v1464h238v-1464h-238z" />
<glyph unicode="&#xce;" horiz-adv-x="584" d="M-4 1608l193 272h208l193 -272h-123l-174 157l-174 -157h-123zM172 0v1464h238v-1464h-238z" />
<glyph unicode="&#xcf;" horiz-adv-x="584" d="M-10 1769q0 50 36 85.5t85 35.5t84 -34.5t35 -86t-33.5 -86t-85 -34.5t-86.5 35t-35 85zM172 0v1464h238v-1464h-238zM354 1769q0 50 36 85.5t85 35.5t84 -34.5t35 -86t-33.5 -86t-85 -34.5t-86.5 35t-35 85z" />
<glyph unicode="&#xd0;" horiz-adv-x="1530" d="M0 723v184h182v557h322q312 0 439.5 -31.5t223.5 -105.5q258 -197 258 -596q0 -395 -258 -594q-95 -74 -218 -105.5t-382 -31.5h-385v723h-182zM420 215h201q164 0 246.5 22t154.5 83q156 132 156 413q0 280 -166 422q-63 52 -149.5 74t-270.5 22h-172v-344h387v-184 h-387v-508z" />
<glyph unicode="&#xd1;" horiz-adv-x="1645" d="M168 0v1522l930 -895q85 -85 159 -178v1015h220v-1521l-949 911q-79 77 -141 164v-1018h-219zM530 1624q45 209 189 209q31 0 61 -8l117 -31q16 -4 47 -4q63 0 82 67h90q-18 -99 -69.5 -153.5t-125.5 -54.5q-25 0 -53 6l-124 32q-27 5 -38 5q-65 0 -86 -68h-90z" />
<glyph unicode="&#xd2;" horiz-adv-x="1774" d="M104 729q0 321 228 545q229 223 555 223q324 0 553 -223q229 -227 229 -546t-229 -542q-233 -225 -553 -225q-158 0 -301.5 58.5t-254.5 166.5q-227 222 -227 543zM352 729q0 -227 156 -387t379 -160q219 0 377 160q157 161 157 388t-157 388q-154 160 -377 160 t-379 -160q-156 -158 -156 -389zM613 1880h225l190 -272h-123z" />
<glyph unicode="&#xd3;" horiz-adv-x="1774" d="M104 729q0 321 228 545q229 223 555 223q324 0 553 -223q229 -227 229 -546t-229 -542q-233 -225 -553 -225q-158 0 -301.5 58.5t-254.5 166.5q-227 222 -227 543zM352 729q0 -227 156 -387t379 -160q219 0 377 160q157 161 157 388t-157 388q-154 160 -377 160 t-379 -160q-156 -158 -156 -389zM746 1608l190 272h225l-292 -272h-123z" />
<glyph unicode="&#xd4;" horiz-adv-x="1774" d="M104 729q0 321 228 545q229 223 555 223q324 0 553 -223q229 -227 229 -546t-229 -542q-233 -225 -553 -225q-158 0 -301.5 58.5t-254.5 166.5q-227 222 -227 543zM352 729q0 -227 156 -387t379 -160q219 0 377 160q157 161 157 388t-157 388q-154 160 -377 160 t-379 -160q-156 -158 -156 -389zM590 1608l193 272h208l193 -272h-123l-174 157l-174 -157h-123z" />
<glyph unicode="&#xd5;" horiz-adv-x="1774" d="M104 729q0 321 228 545q229 223 555 223q324 0 553 -223q229 -227 229 -546t-229 -542q-233 -225 -553 -225q-158 0 -301.5 58.5t-254.5 166.5q-227 222 -227 543zM352 729q0 -227 156 -387t379 -160q219 0 377 160q157 161 157 388t-157 388q-154 160 -377 160 t-379 -160q-156 -158 -156 -389zM594 1624q45 209 189 209q31 0 61 -8l117 -31q16 -4 47 -4q63 0 82 67h90q-18 -99 -69.5 -153.5t-125.5 -54.5q-25 0 -53 6l-124 32q-27 5 -38 5q-65 0 -86 -68h-90z" />
<glyph unicode="&#xd6;" horiz-adv-x="1774" d="M104 729q0 321 228 545q229 223 555 223q324 0 553 -223q229 -227 229 -546t-229 -542q-233 -225 -553 -225q-158 0 -301.5 58.5t-254.5 166.5q-227 222 -227 543zM352 729q0 -227 156 -387t379 -160q219 0 377 160q157 161 157 388t-157 388q-154 160 -377 160 t-379 -160q-156 -158 -156 -389zM584 1769q0 50 36 85.5t85 35.5t84 -34.5t35 -86t-33.5 -86t-85 -34.5t-86.5 35t-35 85zM948 1769q0 50 36 85.5t85 35.5t84 -34.5t35 -86t-33.5 -86t-85 -34.5t-86.5 35t-35 85z" />
<glyph unicode="&#xd7;" horiz-adv-x="1706" d="M287 152l458 458l-458 461l116 117l459 -459l461 459l117 -117l-459 -461l459 -458l-117 -119l-461 461l-459 -461z" />
<glyph unicode="&#xd8;" horiz-adv-x="1774" d="M104 731q0 321 228 543q110 109 253.5 167t301.5 58q231 0 454 -145l172 184l129 -104l-176 -189q203 -225 203 -514q0 -318 -229 -543q-111 -107 -254 -165t-299 -58q-262 0 -473 156l-181 -195l-124 109l184 196q-189 213 -189 500zM352 731q0 -185 105 -323l727 778 q-133 94 -297 94q-225 0 -379 -160q-156 -158 -156 -389zM571 289q133 -105 301 -105q236 0 394 160q155 159 155 387q0 191 -118 342z" />
<glyph unicode="&#xd9;" horiz-adv-x="1524" d="M162 553v911h235v-889q0 -397 364.5 -397t364.5 397v889h238v-911q0 -592 -602 -592q-302 0 -451 147t-149 445zM488 1880h225l190 -272h-123z" />
<glyph unicode="&#xda;" horiz-adv-x="1524" d="M162 553v911h235v-889q0 -397 364.5 -397t364.5 397v889h238v-911q0 -592 -602 -592q-302 0 -451 147t-149 445zM621 1608l190 272h225l-292 -272h-123z" />
<glyph unicode="&#xdb;" horiz-adv-x="1524" d="M162 553v911h235v-889q0 -397 364.5 -397t364.5 397v889h238v-911q0 -592 -602 -592q-302 0 -451 147t-149 445zM465 1608l193 272h208l193 -272h-123l-174 157l-174 -157h-123z" />
<glyph unicode="&#xdc;" horiz-adv-x="1524" d="M162 553v911h235v-889q0 -397 364.5 -397t364.5 397v889h238v-911q0 -592 -602 -592q-302 0 -451 147t-149 445zM459 1769q0 50 36 85.5t85 35.5t84 -34.5t35 -86t-33.5 -86t-85 -34.5t-86.5 35t-35 85zM823 1769q0 50 36 85.5t85 35.5t84 -34.5t35 -86t-33.5 -86 t-85 -34.5t-86.5 35t-35 85z" />
<glyph unicode="&#xdd;" horiz-adv-x="1214" d="M-10 1464h250l307 -497q31 -54 61 -117q29 73 62 123l315 491h238l-504 -794v-670h-236v670zM467 1608l190 272h225l-292 -272h-123z" />
<glyph unicode="&#xde;" horiz-adv-x="1090" d="M168 0v1464h223v-301h115q177 0 254.5 -17.5t140.5 -63t102 -132t39 -190.5t-39 -192t-101.5 -133t-138 -62t-235.5 -17h-137v-356h-223zM391 551h76q198 0 264 43t66 156t-70.5 160.5t-259.5 47.5h-76v-407z" />
<glyph unicode="&#xdf;" horiz-adv-x="1233" d="M47 743v205h117v234q0 172 122.5 280.5t317.5 108.5t310.5 -106t115.5 -281q0 -253 -276 -334q188 -9 291.5 -118.5t103.5 -318t-120.5 -330.5t-344.5 -122q-102 0 -172 39v193q60 -31 135 -31q132 0 203.5 74t71.5 213q0 288 -340 288h-35v201l33 -2q106 0 164.5 55 t58.5 161.5t-53 166t-163 59.5t-158 -70.5t-48 -285.5v-1022h-217v743h-117z" />
<glyph unicode="&#xe0;" horiz-adv-x="1192" d="M80 469q0 233 118 372.5t308 139.5q116 0 198.5 -48.5t120.5 -139.5v155h217v-948h-217v123q-115 -162 -314.5 -162t-315 137.5t-115.5 370.5zM307 468.5q0 -150.5 68 -232.5t188.5 -82t194 89t73.5 235t-68.5 228t-191.5 82t-193.5 -84.5t-70.5 -235zM332 1364h225 l190 -272h-123z" />
<glyph unicode="&#xe1;" horiz-adv-x="1192" d="M80 469q0 233 118 372.5t308 139.5q116 0 198.5 -48.5t120.5 -139.5v155h217v-948h-217v123q-115 -162 -314.5 -162t-315 137.5t-115.5 370.5zM307 468.5q0 -150.5 68 -232.5t188.5 -82t194 89t73.5 235t-68.5 228t-191.5 82t-193.5 -84.5t-70.5 -235zM465 1092l190 272 h225l-292 -272h-123z" />
<glyph unicode="&#xe2;" horiz-adv-x="1192" d="M80 469q0 233 118 372.5t308 139.5q116 0 198.5 -48.5t120.5 -139.5v155h217v-948h-217v123q-115 -162 -314.5 -162t-315 137.5t-115.5 370.5zM307 468.5q0 -150.5 68 -232.5t188.5 -82t194 89t73.5 235t-68.5 228t-191.5 82t-193.5 -84.5t-70.5 -235zM309 1092l193 272 h208l193 -272h-123l-174 157l-174 -157h-123z" />
<glyph unicode="&#xe3;" horiz-adv-x="1192" d="M80 469q0 233 118 372.5t308 139.5q116 0 198.5 -48.5t120.5 -139.5v155h217v-948h-217v123q-115 -162 -314.5 -162t-315 137.5t-115.5 370.5zM307 468.5q0 -150.5 68 -232.5t188.5 -82t194 89t73.5 235t-68.5 228t-191.5 82t-193.5 -84.5t-70.5 -235zM313 1108 q45 209 189 209q31 0 61 -8l117 -31q16 -4 47 -4q63 0 82 67h90q-18 -99 -69.5 -153.5t-125.5 -54.5q-25 0 -53 6l-124 32q-27 5 -38 5q-65 0 -86 -68h-90z" />
<glyph unicode="&#xe4;" horiz-adv-x="1192" d="M80 469q0 233 118 372.5t308 139.5q116 0 198.5 -48.5t120.5 -139.5v155h217v-948h-217v123q-115 -162 -314.5 -162t-315 137.5t-115.5 370.5zM303 1253q0 50 36 85.5t85 35.5t84 -34.5t35 -86t-33.5 -86t-85 -34.5t-86.5 35t-35 85zM307 468.5q0 -150.5 68 -232.5 t188.5 -82t194 89t73.5 235t-68.5 228t-191.5 82t-193.5 -84.5t-70.5 -235zM667 1253q0 50 36 85.5t85 35.5t84 -34.5t35 -86t-33.5 -86t-85 -34.5t-86.5 35t-35 85z" />
<glyph unicode="&#xe5;" horiz-adv-x="1192" d="M80 469q0 233 118 372.5t308 139.5q116 0 198.5 -48.5t120.5 -139.5v155h217v-948h-217v123q-115 -162 -314.5 -162t-315 137.5t-115.5 370.5zM307 468.5q0 -150.5 68 -232.5t188.5 -82t194 89t73.5 235t-68.5 228t-191.5 82t-193.5 -84.5t-70.5 -235zM330 1284 q0 99 69 168.5t167.5 69.5t167.5 -69.5t69 -168t-68.5 -167t-168 -68.5t-168 68t-68.5 167zM455 1284q0 -48 32.5 -80.5t80 -32.5t81 33.5t33.5 80.5t-33.5 80.5t-81 33.5t-80 -33.5t-32.5 -81.5z" />
<glyph unicode="&#xe6;" horiz-adv-x="1765" d="M70 289q0 146 102 232.5t269.5 86.5t283.5 -69q2 12 2 36q0 109 -70.5 165.5t-211 56.5t-291.5 -97v203q140 80 294 80t243 -39.5t151 -128.5q123 168 353.5 168t358 -132.5t127.5 -371.5v-37h-757q7 -134 78.5 -210t182 -76t181 45t123.5 145l182 -102 q-157 -283 -475 -283q-233 0 -354 156q-139 -156 -393 -156q-173 0 -276 91t-103 237zM295 297.5q0 -66.5 53.5 -104t156.5 -37.5t166.5 38t63.5 104t-59 105t-161 39t-161 -39t-59 -105.5zM938 588h518q-25 209 -254 209q-212 0 -264 -209z" />
<glyph unicode="&#xe7;" horiz-adv-x="930" d="M80 472.5q0 227.5 145.5 368t380.5 140.5q146 0 252 -59v-244q-103 113 -248 113t-225 -86t-80 -231t80.5 -229.5t230 -84.5t242.5 119v-250q-120 -68 -274 -68q-223 0 -363.5 142t-140.5 369.5zM317 -287q158 -37 251 -37t93 68q0 39 -31.5 56.5t-101.5 17.5l-41 -2v184 h86v-86h17q223 0 223 -174q0 -83 -61.5 -127.5t-171 -44.5t-263.5 39v106z" />
<glyph unicode="&#xe8;" horiz-adv-x="1139" d="M80 466.5q0 227.5 139.5 371t363.5 143.5t352 -131t128 -367v-41h-758q8 -133 79 -207.5t182.5 -74.5t181.5 44t122 142l183 -102q-158 -283 -475 -283q-228 0 -363 139t-135 366.5zM304 1364h225l190 -272h-123zM319 588h519q-27 209 -256 209q-211 0 -263 -209z" />
<glyph unicode="&#xe9;" horiz-adv-x="1139" d="M80 466.5q0 227.5 139.5 371t363.5 143.5t352 -131t128 -367v-41h-758q8 -133 79 -207.5t182.5 -74.5t181.5 44t122 142l183 -102q-158 -283 -475 -283q-228 0 -363 139t-135 366.5zM319 588h519q-27 209 -256 209q-211 0 -263 -209zM437 1092l190 272h225l-292 -272 h-123z" />
<glyph unicode="&#xea;" horiz-adv-x="1139" d="M80 466.5q0 227.5 139.5 371t363.5 143.5t352 -131t128 -367v-41h-758q8 -133 79 -207.5t182.5 -74.5t181.5 44t122 142l183 -102q-158 -283 -475 -283q-228 0 -363 139t-135 366.5zM281 1092l193 272h208l193 -272h-123l-174 157l-174 -157h-123zM319 588h519 q-27 209 -256 209q-211 0 -263 -209z" />
<glyph unicode="&#xeb;" horiz-adv-x="1139" d="M80 466.5q0 227.5 139.5 371t363.5 143.5t352 -131t128 -367v-41h-758q8 -133 79 -207.5t182.5 -74.5t181.5 44t122 142l183 -102q-158 -283 -475 -283q-228 0 -363 139t-135 366.5zM275 1253q0 50 36 85.5t85 35.5t84 -34.5t35 -86t-33.5 -86t-85 -34.5t-86.5 35t-35 85 zM319 588h519q-27 209 -256 209q-211 0 -263 -209zM639 1253q0 50 36 85.5t85 35.5t84 -34.5t35 -86t-33.5 -86t-85 -34.5t-86.5 35t-35 85z" />
<glyph unicode="&#xec;" horiz-adv-x="537" d="M-6 1364h225l190 -272h-123zM160 0v948h217v-948h-217z" />
<glyph unicode="&#xed;" horiz-adv-x="537" d="M127 1092l190 272h225l-292 -272h-123zM160 0v948h217v-948h-217z" />
<glyph unicode="&#xee;" horiz-adv-x="537" d="M-29 1092l193 272h208l193 -272h-123l-174 157l-174 -157h-123zM160 0v948h217v-948h-217z" />
<glyph unicode="&#xef;" horiz-adv-x="537" d="M-35 1253q0 50 36 85.5t85 35.5t84 -34.5t35 -86t-33.5 -86t-85 -34.5t-86.5 35t-35 85zM160 0v948h217v-948h-217zM329 1253q0 50 36 85.5t85 35.5t84 -34.5t35 -86t-33.5 -86t-85 -34.5t-86.5 35t-35 85z" />
<glyph unicode="&#xf0;" horiz-adv-x="1204" d="M80 449q0 198 153 339q142 134 355 134q151 0 276 -109q-98 217 -248 332l-290 -135l-60 116l240 111q-86 65 -236 147l109 160q222 -132 328 -217l317 143l59 -114l-268 -123q309 -299 309 -703q0 -262 -141.5 -415.5t-382.5 -153.5q-211 0 -369 143q-151 141 -151 345z M309 443q0 -120 85.5 -203.5t207 -83.5t207.5 84t86 203t-85 202.5t-208.5 83.5t-208 -83t-84.5 -203z" />
<glyph unicode="&#xf1;" horiz-adv-x="1204" d="M150 0v948h204v-155q65 98 153 143t204 45q222 0 307 -133q25 -39 36 -91t11 -182v-575h-219v487q0 187 -45.5 248.5t-161.5 61.5q-158 0 -229 -107q-24 -34 -33.5 -87.5t-9.5 -170.5v-432h-217zM325 1108q45 209 189 209q31 0 61 -8l117 -31q16 -4 47 -4q63 0 82 67h90 q-18 -99 -69.5 -153.5t-125.5 -54.5q-25 0 -53 6l-124 32q-27 5 -38 5q-65 0 -86 -68h-90z" />
<glyph unicode="&#xf2;" horiz-adv-x="1204" d="M80 473q0 212 153 361q151 147 367 147q219 0 371 -150q153 -149 153 -358q0 -215 -151 -360q-158 -152 -373 -152t-367 150q-153 151 -153 362zM309 471q0 -132 85.5 -223.5t207.5 -91.5t207.5 91.5t85.5 223.5t-85 223.5t-207.5 91.5t-208 -91.5t-85.5 -223.5z M328 1364h225l190 -272h-123z" />
<glyph unicode="&#xf3;" horiz-adv-x="1204" d="M80 473q0 212 153 361q151 147 367 147q219 0 371 -150q153 -149 153 -358q0 -215 -151 -360q-158 -152 -373 -152t-367 150q-153 151 -153 362zM309 471q0 -132 85.5 -223.5t207.5 -91.5t207.5 91.5t85.5 223.5t-85 223.5t-207.5 91.5t-208 -91.5t-85.5 -223.5z M461 1092l190 272h225l-292 -272h-123z" />
<glyph unicode="&#xf4;" horiz-adv-x="1204" d="M80 473q0 212 153 361q151 147 367 147q219 0 371 -150q153 -149 153 -358q0 -215 -151 -360q-158 -152 -373 -152t-367 150q-153 151 -153 362zM305 1092l193 272h208l193 -272h-123l-174 157l-174 -157h-123zM309 471q0 -132 85.5 -223.5t207.5 -91.5t207.5 91.5 t85.5 223.5t-85 223.5t-207.5 91.5t-208 -91.5t-85.5 -223.5z" />
<glyph unicode="&#xf5;" horiz-adv-x="1204" d="M80 473q0 212 153 361q151 147 367 147q219 0 371 -150q153 -149 153 -358q0 -215 -151 -360q-158 -152 -373 -152t-367 150q-153 151 -153 362zM309 471q0 -132 85.5 -223.5t207.5 -91.5t207.5 91.5t85.5 223.5t-85 223.5t-207.5 91.5t-208 -91.5t-85.5 -223.5z M309 1108q45 209 189 209q31 0 61 -8l117 -31q16 -4 47 -4q63 0 82 67h90q-18 -99 -69.5 -153.5t-125.5 -54.5q-25 0 -53 6l-124 32q-27 5 -38 5q-65 0 -86 -68h-90z" />
<glyph unicode="&#xf6;" horiz-adv-x="1204" d="M80 473q0 212 153 361q151 147 367 147q219 0 371 -150q153 -149 153 -358q0 -215 -151 -360q-158 -152 -373 -152t-367 150q-153 151 -153 362zM299 1253q0 50 36 85.5t85 35.5t84 -34.5t35 -86t-33.5 -86t-85 -34.5t-86.5 35t-35 85zM309 471q0 -132 85.5 -223.5 t207.5 -91.5t207.5 91.5t85.5 223.5t-85 223.5t-207.5 91.5t-208 -91.5t-85.5 -223.5zM663 1253q0 50 36 85.5t85 35.5t84 -34.5t35 -86t-33.5 -86t-85 -34.5t-86.5 35t-35 85z" />
<glyph unicode="&#xf7;" horiz-adv-x="1706" d="M254 528v166h1198v-166h-1198zM717 229q0 57 40.5 97.5t97 40.5t96.5 -40.5t40 -97t-39.5 -96t-97.5 -39.5t-97.5 39t-39.5 96zM717 989q0 57 40.5 98t97 41t96.5 -41t40 -97.5t-39.5 -96t-97.5 -39.5t-97.5 39t-39.5 96z" />
<glyph unicode="&#xf8;" horiz-adv-x="1204" d="M70 29l125 127q-113 144 -113 313q0 223 149.5 368.5t376.5 145.5q189 0 318 -113l125 127l84 -79l-127 -130q114 -147 114 -315q0 -219 -151 -365.5t-377 -146.5q-188 0 -313 111l-131 -125zM305 475q0 -84 45 -170l428 418q-73 63 -166 63q-131 0 -219 -89t-88 -222z M424 217q75 -57 187.5 -57t198 86.5t85.5 218.5q0 86 -45 170z" />
<glyph unicode="&#xf9;" horiz-adv-x="1204" d="M143 479v469h217v-534q0 -138 57 -198t185 -60t185 60t57 198v534h217v-469q0 -272 -109 -395t-350 -123t-350 122t-109 396zM328 1364h225l190 -272h-123z" />
<glyph unicode="&#xfa;" horiz-adv-x="1204" d="M143 479v469h217v-534q0 -138 57 -198t185 -60t185 60t57 198v534h217v-469q0 -272 -109 -395t-350 -123t-350 122t-109 396zM461 1092l190 272h225l-292 -272h-123z" />
<glyph unicode="&#xfb;" horiz-adv-x="1204" d="M143 479v469h217v-534q0 -138 57 -198t185 -60t185 60t57 198v534h217v-469q0 -272 -109 -395t-350 -123t-350 122t-109 396zM305 1092l193 272h208l193 -272h-123l-174 157l-174 -157h-123z" />
<glyph unicode="&#xfc;" horiz-adv-x="1204" d="M143 479v469h217v-534q0 -138 57 -198t185 -60t185 60t57 198v534h217v-469q0 -272 -109 -395t-350 -123t-350 122t-109 396zM299 1253q0 50 36 85.5t85 35.5t84 -34.5t35 -86t-33.5 -86t-85 -34.5t-86.5 35t-35 85zM663 1253q0 50 36 85.5t85 35.5t84 -34.5t35 -86 t-33.5 -86t-85 -34.5t-86.5 35t-35 85z" />
<glyph unicode="&#xfd;" horiz-adv-x="965" d="M2 948h240l174 -491q32 -95 45 -186q7 27 67 171l234 506h235l-684 -1394h-223l260 528zM342 1092l190 272h225l-292 -272h-123z" />
<glyph unicode="&#xfe;" horiz-adv-x="1192" d="M150 -446v1996h217v-757q38 90 121.5 139t199.5 49q189 0 306.5 -139.5t117.5 -372.5t-115.5 -370.5t-315 -137.5t-314.5 162v-569h-217zM360 477q0 -147 73.5 -235t195 -88t189 82t67.5 232.5t-70.5 235t-193.5 84.5t-192 -82t-69 -229z" />
<glyph unicode="&#xff;" horiz-adv-x="965" d="M2 948h240l174 -491q32 -95 45 -186q7 27 67 171l234 506h235l-684 -1394h-223l260 528zM180 1253q0 50 36 85.5t85 35.5t84 -34.5t35 -86t-33.5 -86t-85 -34.5t-86.5 35t-35 85zM544 1253q0 50 36 85.5t85 35.5t84 -34.5t35 -86t-33.5 -86t-85 -34.5t-86.5 35t-35 85z " />
<glyph unicode="&#x152;" horiz-adv-x="2304" d="M109 731q0 318 225 543t543 225t528 -252l2 217h788v-202h-569v-361h569v-209h-569v-479h569v-213h-788l-2 225q-94 -126 -230 -193t-295 -67q-321 0 -546 223q-225 225 -225 543zM352 732q0 -228 153 -388t371.5 -160t371.5 160t153 388t-154 388t-371.5 160 t-370.5 -160t-153 -388z" />
<glyph unicode="&#x153;" horiz-adv-x="1944" d="M80 454q0 226 149 375q156 152 396.5 152t375.5 -201q126 201 365.5 201t367.5 -131t128 -367v-41h-758q8 -134 79 -210t181.5 -76t181 45t123.5 145l182 -102q-156 -283 -475 -283q-128 0 -220 45t-163 141q-168 -186 -387 -186q-146 0 -268 71t-190 186t-68 236z M307 471q0 -132 85.5 -223.5t207.5 -91.5t208.5 91.5t86.5 223.5t-86 223.5t-208.5 91.5t-208 -91.5t-85.5 -223.5zM1118 588h518q-25 209 -254 209q-212 0 -264 -209z" />
<glyph unicode="&#x178;" horiz-adv-x="1214" d="M-10 1464h250l307 -497q31 -54 61 -117q29 73 62 123l315 491h238l-504 -794v-670h-236v670zM305 1769q0 50 36 85.5t85 35.5t84 -34.5t35 -86t-33.5 -86t-85 -34.5t-86.5 35t-35 85zM669 1769q0 50 36 85.5t85 35.5t84 -34.5t35 -86t-33.5 -86t-85 -34.5t-86.5 35 t-35 85z" />
<glyph unicode="&#x2c6;" horiz-adv-x="1024" d="M215 1092l193 272h208l193 -272h-123l-174 157l-174 -157h-123z" />
<glyph unicode="&#x2dc;" horiz-adv-x="1024" d="M219 1108q45 209 189 209q31 0 61 -8l117 -31q16 -4 47 -4q63 0 82 67h90q-18 -99 -69.5 -153.5t-125.5 -54.5q-25 0 -53 6l-124 32q-27 5 -38 5q-65 0 -86 -68h-90z" />
<glyph unicode="&#x2000;" horiz-adv-x="986" />
<glyph unicode="&#x2001;" horiz-adv-x="1972" />
<glyph unicode="&#x2002;" horiz-adv-x="986" />
<glyph unicode="&#x2003;" horiz-adv-x="1972" />
<glyph unicode="&#x2004;" horiz-adv-x="657" />
<glyph unicode="&#x2005;" horiz-adv-x="493" />
<glyph unicode="&#x2006;" horiz-adv-x="328" />
<glyph unicode="&#x2007;" horiz-adv-x="328" />
<glyph unicode="&#x2008;" horiz-adv-x="246" />
<glyph unicode="&#x2009;" horiz-adv-x="394" />
<glyph unicode="&#x200a;" horiz-adv-x="109" />
<glyph unicode="&#x2010;" horiz-adv-x="829" d="M147 371v200h535v-200h-535z" />
<glyph unicode="&#x2011;" horiz-adv-x="829" d="M147 371v200h535v-200h-535z" />
<glyph unicode="&#x2012;" horiz-adv-x="829" d="M147 371v200h535v-200h-535z" />
<glyph unicode="&#x2013;" horiz-adv-x="1024" d="M0 399v146h1024v-146h-1024z" />
<glyph unicode="&#x2014;" horiz-adv-x="2048" d="M0 399v146h2048v-146h-2048z" />
<glyph unicode="&#x2018;" horiz-adv-x="618" d="M123 969l246 528l127 -45l-191 -545z" />
<glyph unicode="&#x2019;" horiz-adv-x="618" d="M123 954l190 543l183 -59l-246 -531z" />
<glyph unicode="&#x201a;" horiz-adv-x="618" d="M123 -299l190 545l183 -60l-246 -530z" />
<glyph unicode="&#x201c;" horiz-adv-x="905" d="M84 969l246 528l127 -45l-189 -545zM449 969l245 528l127 -45l-190 -545z" />
<glyph unicode="&#x201d;" horiz-adv-x="905" d="M84 954l190 543l183 -59l-246 -531zM449 954l190 543l182 -59l-246 -531z" />
<glyph unicode="&#x201e;" horiz-adv-x="905" d="M84 -299l190 545l183 -60l-246 -530zM449 -299l190 545l182 -60l-246 -530z" />
<glyph unicode="&#x2022;" horiz-adv-x="1208" d="M307 762q0 123 87 209t209.5 86t209 -86.5t86.5 -208.5t-87.5 -209.5t-210 -87.5t-208.5 87t-86 210z" />
<glyph unicode="&#x2026;" horiz-adv-x="2048" d="M211 111.5q0 54.5 38 93.5t93 39t93 -39t38 -93.5t-38 -92t-93 -37.5t-93 37.5t-38 92zM893 111.5q0 54.5 38 93.5t93 39t93 -39t38 -93.5t-38 -92t-93 -37.5t-93 37.5t-38 92zM1577 111.5q0 54.5 38 93.5t93 39t93 -39t38 -93.5t-38 -92t-93 -37.5t-93 37.5t-38 92z" />
<glyph unicode="&#x202f;" horiz-adv-x="394" />
<glyph unicode="&#x2039;" horiz-adv-x="627" d="M80 469l254 408l139 -84l-207 -324l207 -324l-139 -84z" />
<glyph unicode="&#x203a;" horiz-adv-x="545" d="M80 145l207 324l-207 324l139 84l254 -408l-254 -408z" />
<glyph unicode="&#x205f;" horiz-adv-x="493" />
<glyph unicode="&#x20ac;" d="M0 543l25 110h132l-1 68q0 44 4 80h-160l25 112h147q47 261 215.5 413.5t409.5 152.5q191 0 354 -131v-242q-141 166 -336 166q-150 0 -259.5 -98t-139.5 -261h583l-34 -112h-568q-4 -68 -4 -101v-12q0 -13 2 -35h523l-37 -110h-471q31 -173 137.5 -274t255.5 -101 q186 0 356 156l-8 -244q-165 -119 -385 -119t-386.5 157t-211.5 425h-168z" />
<glyph unicode="&#x2122;" horiz-adv-x="1706" d="M225 1366v94h467v-94h-168v-448h-129v448h-170zM809 918v542h170l141 -360l133 360h170v-542h-114v428l-160 -428h-59l-166 428v-428h-115z" />
<glyph unicode="&#xe000;" horiz-adv-x="950" d="M0 0v950h950v-950h-950z" />
</font>
</defs>
</svg>
